<?xml version="1.0" encoding="UTF-8" standalone="no"?>
<svg
   xmlns:dc="http://purl.org/dc/elements/1.1/"
   xmlns:cc="http://creativecommons.org/ns#"
   xmlns:rdf="http://www.w3.org/1999/02/22-rdf-syntax-ns#"
   xmlns:svg="http://www.w3.org/2000/svg"
   xmlns="http://www.w3.org/2000/svg"
   xmlns:sodipodi="http://sodipodi.sourceforge.net/DTD/sodipodi-0.dtd"
   xmlns:inkscape="http://www.inkscape.org/namespaces/inkscape"
   style="enable-background:new"
   id="svg884"
   version="1.1"
   viewBox="0 0 626.56287 534.46857"
   height="534.46857mm"
   width="626.56287mm"
   sodipodi:docname="organic-books-white.svg"
   inkscape:version="0.92.2 2405546, 2018-03-11">
  <sodipodi:namedview
     pagecolor="#ffffff"
     bordercolor="#666666"
     borderopacity="1"
     objecttolerance="10"
     gridtolerance="10"
     guidetolerance="10"
     inkscape:pageopacity="0"
     inkscape:pageshadow="2"
     inkscape:window-width="1920"
     inkscape:window-height="1017"
     id="namedview851"
     showgrid="false"
     inkscape:pagecheckerboard="true"
     inkscape:zoom="0.2782867"
     inkscape:cx="2053.0536"
     inkscape:cy="1010.0193"
     inkscape:window-x="1920"
     inkscape:window-y="28"
     inkscape:window-maximized="1"
     inkscape:current-layer="svg884" />
  <defs
     id="defs878" />
  <metadata
     id="metadata881">
    <rdf:RDF>
      <cc:Work
         rdf:about="">
        <dc:format>image/svg+xml</dc:format>
        <dc:type
           rdf:resource="http://purl.org/dc/dcmitype/StillImage" />
        <dc:title></dc:title>
      </cc:Work>
    </rdf:RDF>
  </metadata>
  <g
     id="g1029">
    <path
       inkscape:connector-curvature="0"
       id="path949"
       style="font-style:normal;font-variant:normal;font-weight:bold;font-stretch:normal;font-size:128.33703613px;line-height:1.25;font-family:'MB PictureHouse One';-inkscape-font-specification:'MB PictureHouse One, Bold';font-variant-ligatures:normal;font-variant-caps:normal;font-variant-numeric:normal;font-feature-settings:normal;text-align:start;letter-spacing:0px;word-spacing:0px;writing-mode:lr-tb;text-anchor:start;fill:#fdfdfc;fill-opacity:1;stroke:none;stroke-width:1.70195484"
       d="m 49.39775,302.78719 c -8.98359,8.9836 -13.98873,20.91894 -13.98873,33.75265 0,12.70536 5.00514,24.64071 13.98873,33.6243 9.11193,8.98359 21.04728,13.98874 33.75264,13.98874 12.70537,0 24.76905,-5.00515 33.75264,-13.98874 8.9836,-8.98359 13.98874,-20.91894 13.98874,-33.6243 0,-12.83371 -5.00514,-24.76905 -13.98874,-33.75265 -8.98359,-8.98359 -21.04727,-13.98873 -33.75264,-13.98873 -12.70536,0 -24.64071,5.00514 -33.75264,13.98873 z m 8.47025,58.9067 c -6.54519,-6.67352 -10.3953,-15.65711 -10.3953,-25.15405 0,-9.62528 3.85011,-18.48054 10.3953,-25.2824 6.80186,-6.80186 15.65712,-10.3953 25.28239,-10.3953 9.49695,0 18.48054,3.59344 25.2824,10.3953 6.67353,6.80186 10.3953,15.65712 10.3953,25.2824 0,9.49694 -3.72177,18.48053 -10.3953,25.15405 -6.80186,6.67353 -15.78545,10.3953 -25.2824,10.3953 -9.62527,0 -18.48053,-3.72177 -25.28239,-10.3953 z" />
    <path
       inkscape:connector-curvature="0"
       id="path951"
       style="font-style:normal;font-variant:normal;font-weight:bold;font-stretch:normal;font-size:128.33703613px;line-height:1.25;font-family:'MB PictureHouse One';-inkscape-font-specification:'MB PictureHouse One, Bold';font-variant-ligatures:normal;font-variant-caps:normal;font-variant-numeric:normal;font-feature-settings:normal;text-align:start;letter-spacing:0px;word-spacing:0px;writing-mode:lr-tb;text-anchor:start;fill:#fdfdfc;fill-opacity:1;stroke:none;stroke-width:1.70195484"
       d="m 195.28488,348.34684 c 6.41686,-6.03184 9.88196,-14.24541 9.88196,-22.97233 0,-19.7639 -18.3522,-34.651 -37.73109,-34.52266 h -23.74236 v 91.50431 h 12.06369 c 0,0 0,-14.24541 0,-23.87069 12.96204,0 14.37374,0 15.78545,-0.12834 l 21.04728,23.99903 h 15.65711 l -23.61401,-27.07912 c 3.97845,-1.66838 7.57188,-4.10678 10.65197,-6.9302 z m -27.7208,-1.79672 c 0,0 -6.54519,0 -11.807,0 v -43.63459 c 5.13348,0 11.67867,0 11.67867,0 12.70536,0 25.6674,8.59858 25.6674,22.45898 0,15.01544 -12.96204,20.7906 -25.53907,21.17561 z" />
    <path
       inkscape:connector-curvature="0"
       id="path953"
       style="font-style:normal;font-variant:normal;font-weight:bold;font-stretch:normal;font-size:128.33703613px;line-height:1.25;font-family:'MB PictureHouse One';-inkscape-font-specification:'MB PictureHouse One, Bold';font-variant-ligatures:normal;font-variant-caps:normal;font-variant-numeric:normal;font-feature-settings:normal;text-align:start;letter-spacing:0px;word-spacing:0px;writing-mode:lr-tb;text-anchor:start;fill:#fdfdfc;fill-opacity:1;stroke:none;stroke-width:1.70195484"
       d="m 231.00268,302.78719 c -9.11193,8.9836 -14.11707,21.04728 -14.11707,33.75265 0,12.8337 5.00514,24.76904 14.11707,33.88097 8.9836,8.9836 21.04728,14.11708 33.75264,14.11708 12.96205,0 23.22901,-5.00515 30.54422,-9.24027 l 3.20842,-1.66838 V 345.7801 h -30.1592 v 12.06368 c 0,0 11.29366,0 17.96719,0 0,3.85011 0,5.90351 0,8.72692 -7.70023,4.10679 -14.37375,5.77517 -21.56063,5.77517 -9.49694,0 -18.48053,-3.72178 -25.28239,-10.3953 -6.80186,-6.80186 -10.65198,-15.78546 -10.65198,-25.41073 0,-9.49695 3.85012,-18.48054 10.65198,-25.2824 6.80186,-6.80186 15.78545,-10.65198 25.28239,-10.65198 8.34191,0 16.29881,2.95176 22.71566,8.08524 l 7.44355,-9.36861 c -8.47025,-6.80186 -19.25056,-10.65197 -30.15921,-10.65197 -12.70536,0 -24.76904,5.00514 -33.75264,14.11707 z" />
    <path
       inkscape:connector-curvature="0"
       id="path955"
       style="font-style:normal;font-variant:normal;font-weight:bold;font-stretch:normal;font-size:128.33703613px;line-height:1.25;font-family:'MB PictureHouse One';-inkscape-font-specification:'MB PictureHouse One, Bold';font-variant-ligatures:normal;font-variant-caps:normal;font-variant-numeric:normal;font-feature-settings:normal;text-align:start;letter-spacing:0px;word-spacing:0px;writing-mode:lr-tb;text-anchor:start;fill:#fdfdfc;fill-opacity:1;stroke:none;stroke-width:1.70195484"
       d="m 373.34449,382.35616 h 13.09038 l -39.65615,-95.73943 -39.65614,95.73943 h 13.09038 c 0,0 4.10678,-10.01029 10.26696,-24.51238 h 32.72594 c 6.03184,14.50209 10.13863,24.51238 10.13863,24.51238 z M 335.35673,345.7801 c 4.36346,-10.52364 8.59858,-21.04727 11.42199,-27.7208 2.69508,6.67353 7.05854,17.19716 11.422,27.7208 z" />
    <path
       inkscape:connector-curvature="0"
       id="path957"
       style="font-style:normal;font-variant:normal;font-weight:bold;font-stretch:normal;font-size:128.33703613px;line-height:1.25;font-family:'MB PictureHouse One';-inkscape-font-specification:'MB PictureHouse One, Bold';font-variant-ligatures:normal;font-variant-caps:normal;font-variant-numeric:normal;font-feature-settings:normal;text-align:start;letter-spacing:0px;word-spacing:0px;writing-mode:lr-tb;text-anchor:start;fill:#fdfdfc;fill-opacity:1;stroke:none;stroke-width:1.70195484"
       d="m 399.36483,382.35616 h 12.06368 c 0,0 0,-47.35637 0,-66.73526 15.01543,14.88709 71.09872,71.09872 71.09872,71.09872 v -95.86777 h -12.06368 c 0,0 0,47.35637 0,66.99193 -14.8871,-15.14377 -71.09872,-71.22705 -71.09872,-71.22705 z" />
    <path
       inkscape:connector-curvature="0"
       id="path959"
       style="font-style:normal;font-variant:normal;font-weight:bold;font-stretch:normal;font-size:128.33703613px;line-height:1.25;font-family:'MB PictureHouse One';-inkscape-font-specification:'MB PictureHouse One, Bold';font-variant-ligatures:normal;font-variant-caps:normal;font-variant-numeric:normal;font-feature-settings:normal;text-align:start;letter-spacing:0px;word-spacing:0px;writing-mode:lr-tb;text-anchor:start;fill:#fdfdfc;fill-opacity:1;stroke:none;stroke-width:1.70195484"
       d="m 495.36696,290.85185 v 91.50431 h 12.06369 v -91.50431 z" />
    <path
       inkscape:connector-curvature="0"
       id="path961"
       style="font-style:normal;font-variant:normal;font-weight:bold;font-stretch:normal;font-size:128.33703613px;line-height:1.25;font-family:'MB PictureHouse One';-inkscape-font-specification:'MB PictureHouse One, Bold';font-variant-ligatures:normal;font-variant-caps:normal;font-variant-numeric:normal;font-feature-settings:normal;text-align:start;letter-spacing:0px;word-spacing:0px;writing-mode:lr-tb;text-anchor:start;fill:#fdfdfc;fill-opacity:1;stroke:none;stroke-width:1.70195484"
       d="m 534.29919,302.65886 c -8.98359,8.98359 -14.11707,20.91893 -14.11707,33.88098 0,12.8337 5.13348,24.76904 14.11707,33.88097 8.9836,8.9836 21.04728,13.8604 33.75264,13.8604 11.67867,0 22.844,-4.23512 31.57091,-11.807 l -7.82856,-8.9836 c -6.54518,5.77517 -15.01543,8.85526 -23.74235,8.85526 -9.49694,0 -18.48053,-3.72178 -25.28239,-10.3953 -6.80187,-6.80186 -10.52364,-15.91379 -10.52364,-25.41073 0,-9.62528 3.72177,-18.73721 10.52364,-25.41074 6.80186,-6.80186 15.78545,-10.52364 25.28239,-10.52364 8.34191,0 16.42714,2.82342 22.71566,8.08524 l 7.44355,-9.36861 c -8.34191,-7.05853 -19.25056,-10.65197 -30.15921,-10.65197 -12.70536,0 -24.76904,4.87681 -33.75264,13.98874 z" />
    <g
       aria-label="BOOKS"
       transform="translate(-72.82149,-77.75746)"
       style="font-style:normal;font-variant:normal;font-weight:normal;font-stretch:normal;font-size:358.85275269px;line-height:1.25;font-family:'MB PictureHouse One';-inkscape-font-specification:'MB PictureHouse One, Normal';font-variant-ligatures:normal;font-variant-caps:normal;font-variant-numeric:normal;font-feature-settings:normal;text-align:start;letter-spacing:0px;word-spacing:0px;writing-mode:lr-tb;text-anchor:start;display:inline;opacity:1;fill:#fdfdfc;fill-opacity:1;stroke:none;stroke-width:1.86902499;enable-background:new"
       id="text855">
      <path
         d="m 183.27478,484.37757 v 95.16155 h 27.49408 c 22.55583,0 33.23314,-15.0817 33.23314,-28.82874 0,-18.15143 -15.21517,-25.35862 -20.6873,-27.22715 4.53786,-2.8028 9.87652,-8.80878 9.87652,-17.35063 0,-12.14545 -10.27691,-21.8885 -23.35662,-21.8885 z m 24.55782,12.54584 c 3.60359,0 7.34065,1.33467 9.87652,3.33666 1.86853,1.46813 4.00399,4.004 4.00399,7.74105 0,7.87452 -7.34065,10.41039 -13.48011,11.07772 -2.66933,0 -7.34065,0 -12.41238,0 0,-10.00998 0,-19.0857 0,-22.15543 5.33866,0 12.01198,0 12.01198,0 z m 2.93626,34.5678 c 10.27692,0 21.35463,6.80679 21.35463,17.75104 0,11.07771 -11.07771,17.75103 -21.35463,17.75103 0,0 -8.80878,0 -14.94824,0 0,-4.93826 0,-17.75103 0,-35.50207 6.27292,0 14.94824,0 14.94824,0 z"
         style="font-style:normal;font-variant:normal;font-weight:bold;font-stretch:normal;font-size:133.46641541px;font-family:'MB PictureHouse One';-inkscape-font-specification:'MB PictureHouse One, Bold';font-variant-ligatures:normal;font-variant-caps:normal;font-variant-numeric:normal;font-feature-settings:normal;text-align:start;writing-mode:lr-tb;text-anchor:start;fill:#fdfdfc;fill-opacity:1;stroke-width:1.86902499"
         id="path964"
         inkscape:connector-curvature="0" />
      <path
         d="m 264.29515,496.78995 c -9.34265,9.34265 -14.54784,21.75502 -14.54784,35.10166 0,13.21318 5.20519,25.62555 14.54784,34.9682 9.47612,9.34265 21.8885,14.54784 35.10167,14.54784 13.21318,0 25.75902,-5.20519 35.10167,-14.54784 9.34265,-9.34265 14.54784,-21.75502 14.54784,-34.9682 0,-13.34664 -5.20519,-25.75901 -14.54784,-35.10166 -9.34265,-9.34265 -21.88849,-14.54784 -35.10167,-14.54784 -13.21317,0 -25.62555,5.20519 -35.10167,14.54784 z m 8.80879,61.26108 c -6.80679,-6.94025 -10.81078,-16.2829 -10.81078,-26.15942 0,-10.00998 4.00399,-19.21916 10.81078,-26.29288 7.07372,-7.07372 16.2829,-10.81078 26.29288,-10.81078 9.87652,0 19.21916,3.73706 26.29288,10.81078 6.94026,7.07372 10.81078,16.2829 10.81078,26.29288 0,9.87652 -3.87052,19.21917 -10.81078,26.15942 -7.07372,6.94025 -16.41636,10.81078 -26.29288,10.81078 -10.00998,0 -19.21916,-3.87053 -26.29288,-10.81078 z"
         style="font-style:normal;font-variant:normal;font-weight:bold;font-stretch:normal;font-size:133.46641541px;font-family:'MB PictureHouse One';-inkscape-font-specification:'MB PictureHouse One, Bold';font-variant-ligatures:normal;font-variant-caps:normal;font-variant-numeric:normal;font-feature-settings:normal;text-align:start;writing-mode:lr-tb;text-anchor:start;fill:#fdfdfc;fill-opacity:1;stroke-width:1.86902499"
         id="path966"
         inkscape:connector-curvature="0" />
      <path
         d="m 374.04,496.78995 c -9.34265,9.34265 -14.54784,21.75502 -14.54784,35.10166 0,13.21318 5.20519,25.62555 14.54784,34.9682 9.47611,9.34265 21.88849,14.54784 35.10166,14.54784 13.21318,0 25.75902,-5.20519 35.10167,-14.54784 9.34265,-9.34265 14.54784,-21.75502 14.54784,-34.9682 0,-13.34664 -5.20519,-25.75901 -14.54784,-35.10166 -9.34265,-9.34265 -21.88849,-14.54784 -35.10167,-14.54784 -13.21317,0 -25.62555,5.20519 -35.10166,14.54784 z m 8.80878,61.26108 c -6.80679,-6.94025 -10.81078,-16.2829 -10.81078,-26.15942 0,-10.00998 4.00399,-19.21916 10.81078,-26.29288 7.07372,-7.07372 16.2829,-10.81078 26.29288,-10.81078 9.87652,0 19.21917,3.73706 26.29289,10.81078 6.94025,7.07372 10.81078,16.2829 10.81078,26.29288 0,9.87652 -3.87053,19.21917 -10.81078,26.15942 -7.07372,6.94025 -16.41637,10.81078 -26.29289,10.81078 -10.00998,0 -19.21916,-3.87053 -26.29288,-10.81078 z"
         style="font-style:normal;font-variant:normal;font-weight:bold;font-stretch:normal;font-size:133.46641541px;font-family:'MB PictureHouse One';-inkscape-font-specification:'MB PictureHouse One, Bold';font-variant-ligatures:normal;font-variant-caps:normal;font-variant-numeric:normal;font-feature-settings:normal;text-align:start;writing-mode:lr-tb;text-anchor:start;fill:#fdfdfc;fill-opacity:1;stroke-width:1.86902499"
         id="path968"
         inkscape:connector-curvature="0" />
      <path
         d="m 524.2898,579.53912 h 16.81677 l -41.77499,-46.98017 40.17339,-48.18138 h -16.2829 l -38.5718,46.31285 v -46.31285 h -12.54584 v 95.16155 h 12.54584 v -29.36261 l 6.53986,-7.87452 z"
         style="font-style:normal;font-variant:normal;font-weight:bold;font-stretch:normal;font-size:133.46641541px;font-family:'MB PictureHouse One';-inkscape-font-specification:'MB PictureHouse One, Bold';font-variant-ligatures:normal;font-variant-caps:normal;font-variant-numeric:normal;font-feature-settings:normal;text-align:start;writing-mode:lr-tb;text-anchor:start;fill:#fdfdfc;fill-opacity:1;stroke-width:1.86902499"
         id="path970"
         inkscape:connector-curvature="0" />
      <path
         d="m 556.66794,489.04889 c -5.60559,4.80479 -8.67532,11.07772 -8.67532,18.01797 0,9.20918 3.47013,15.0817 12.14545,20.15343 13.74704,8.40838 25.89248,14.28091 28.69528,17.4841 4.13746,5.87252 2.80279,14.14744 -2.8028,19.0857 -3.73706,3.20319 -8.40838,5.20519 -13.07971,5.20519 -10.00998,0 -18.01796,-6.94026 -18.01796,-7.07372 l -8.27492,9.34265 c 0.4004,0.53386 11.61158,10.14344 26.29288,10.14344 15.34864,0 30.83074,-12.54584 30.83074,-28.16141 0,-9.60958 -4.00399,-17.61757 -11.74504,-22.02196 -1.33466,-0.66733 -15.4821,-8.67532 -25.62555,-14.6813 -5.33866,-3.2032 -6.00599,-5.60559 -6.00599,-9.60959 0,-6.94025 7.47412,-11.74504 14.41437,-11.74504 7.74105,0 13.07971,4.80479 13.21318,4.93826 l 8.54185,-9.07572 c -4.53786,-4.93826 -15.08171,-8.40838 -21.75503,-8.40838 -6.53985,0 -13.21317,2.40239 -18.15143,6.40638 z"
         style="font-style:normal;font-variant:normal;font-weight:bold;font-stretch:normal;font-size:133.46641541px;font-family:'MB PictureHouse One';-inkscape-font-specification:'MB PictureHouse One, Bold';font-variant-ligatures:normal;font-variant-caps:normal;font-variant-numeric:normal;font-feature-settings:normal;text-align:start;writing-mode:lr-tb;text-anchor:start;fill:#fdfdfc;fill-opacity:1;stroke-width:1.86902499"
         id="path972"
         inkscape:connector-curvature="0" />
    </g>
    <g
       transform="matrix(1.1259353,-0.01009708,0.01009708,1.1259353,111.19811,30.79802)"
       id="group1"
       style="display:inline;opacity:1;fill:#fdfdfc;fill-opacity:1">
      <g
         transform="matrix(0.90708662,0,0,0.90708662,406.83469,162.85979)"
         id="g1117"
         style="fill:#fdfdfc;fill-opacity:1">
        <path
           inkscape:connector-curvature="0"
           d="M -0.26718054,-11.475051 C 12.689947,34.521449 26.2002,93.1046 37.6122,139.592 c 5.1434,20.951 11.7854,40.212 16.4585,61.311 4.3917,-21.421 8.0797,-44.56 13.0167,-65.794 C 77.5698,90.0255 95.121139,34.007011 110.49714,-9.3239394 94.516739,7.2245106 75.5298,34.5276 58.5681,50.1774 57.3802,51.3386 54.6018,71.6698 53.6826,73.6908 L 49.3305,50.2983 Z"
           transform="translate(-295.02803,-179.54161)"
           id="path3023-5-0-1-1-70-6"
           style="fill:#fdfdfc;fill-opacity:1" />
        <path
           inkscape:connector-curvature="0"
           d="M 1.1466719,-4.0606591 C 25.079576,39.298353 50.7749,86.0388 74.7826,129.5 84.5129,147.115 95.8149,163.073 105.178,180.901 101.023,162.388 94.9335,145.71 90.4063,127.328 82.0419,93.3652 74.7158,57.8823 64.4774,24.5701 L 63.867,24.3272 C 44.0229,16.419 21.696272,3.9753809 1.1466719,-4.0606591 Z"
           transform="translate(-354.01756,-167.58515)"
           id="path3021-0-3-9-1-07-1"
           style="fill:#fdfdfc;fill-opacity:1" />
        <path
           inkscape:connector-curvature="0"
           d="M 102.01631,-5.8843901 C 83.003212,1.0950899 56.2485,15.4089 37.8618,22.1364 l -0.6283,0.2287 C 27.4225,53.6616 17.4866,85.5374 9.95091,117.73 5.90242,135.025 3.65931,152.399 0,169.852 8.12586,153.699 15.4228,135.792 23.8233,119.787 45.8326,77.8533 74.323012,32.65321 102.01631,-5.8843901 Z"
           transform="translate(-232.14652,-161.73625)"
           id="path3019-8-2-6-9-8-5"
           style="fill:#fdfdfc;fill-opacity:1" />
        <path
           inkscape:connector-curvature="0"
           d="M 2.9670843,-0.7135633 C 36.487233,33.887117 70.2812,67.1268 104.238,102.253 c 14.087,14.572 29.743,27.614 43.441,42.645 -8.516,-16.112 -18.946,-30.36 -27.766,-46.2833 C 102.196,66.6321 85.57,33.2937 66.1866,2.33344 L 64.4653,2.27124 C 42.977,1.5145 24.455984,0.0440367 2.9670843,-0.7132033 Z"
           transform="translate(-405.72324,-136.31828)"
           id="path3017-3-8-3-1-1-6"
           style="fill:#fdfdfc;fill-opacity:1" />
        <path
           inkscape:connector-curvature="0"
           d="M 148.205,0 C 126.133,1.38769 101.77,3.10061 80.2568,4.40623 l -1.3764,0.0841 C 60.6243,32.8061 43.2218,60.4731 27.4513,90.4246 17.8029,108.749 9.32206,129.042 0,147.601 15.0915,130.104 29.4684,110.895 45.2963,93.752 76.205,60.2753 110.144,29.6702 148.205,1.8e-4 Z"
           transform="translate(-229.35769,-131.79249)"
           id="path3015-5-0-6-38-5-4"
           style="fill:#fdfdfc;fill-opacity:1" />
        <path
           inkscape:connector-curvature="0"
           d="m 71.4028,0 0.0807,0.45337 -2.9227,0.51239 C 45.7066,4.97243 23.533602,9.2619205 0.67980163,13.268461 41.795802,32.338861 79.2542,56.0107 117.646,79.3232 144.063,95.364 171.537,110.163 196.402,126.64 178.853,107.176 158.669,89.3002 139.856,70.0162 116.783,46.3651 94.876,21.4932 71.4031,0 Z"
           transform="translate(-447.64619,-102.22608)"
           id="path3013-6-3-8-74-37-73"
           style="fill:#fdfdfc;fill-opacity:1" />
        <path
           inkscape:connector-curvature="0"
           d="M 114.527,0 C 90.9493,20.8523 68.3148,40.9536 47.5234,63.3831 30.9274,81.2865 15.8286,101.319 0,119.677 22.5575,104.19 44.5906,87.1117 68.4939,72.3675 104.343,50.2549 141.98174,31.511715 184.31474,13.129015 161.75074,9.0444952 136.362,3.98246 114.828,0.055326 Z"
           transform="translate(-225.41391,-99.339047)"
           id="path3011-5-7-4-9-5-2"
           style="fill:#fdfdfc;fill-opacity:1" />
        <path
           inkscape:connector-curvature="0"
           d="M 2.7809949,18.948539 444.962,295.773 l -4.085,14.739 c 34.655,0.597 78.005,0.826 112.188,0.573 L 548.284,296.306 973.1265,23.358367 973.24238,7.7520361 551.837,280.755 c -9.987,15.238 -39.386,16.745 -55.078,18.406 -21.535,-2.179 -46.799,-4.403 -55.298,-18.514 L 2.4739249,0.0221394 Z M 497.225,263.721 c -21.483,0 -38.898,6.448 -38.899,14.402 0,7.955 17.414,14.405 38.899,14.405 21.485,0 38.902,-6.449 38.9,-14.405 0,-7.954 -17.417,-14.402 -38.9,-14.402 z"
           transform="matrix(0.41883103,0,0,0.41970286,-448.50699,-84.093341)"
           id="path1369-35-0-1-9-7-3-0-9"
           style="fill:#fdfdfc;fill-opacity:1" />
      </g>
    </g>
  </g>
</svg>
